<mxfile host="app.diagrams.net" agent="Claude Code" version="28.2.5">
  <diagram name="Paper 시스템 구조" id="paper-system">
    <mxGraphModel dx="1800" dy="1200" grid="10" gridSize="10" guides="1" tooltips="1" connect="1" arrows="1" fold="1" page="1" pageScale="1" pageWidth="1600" pageHeight="1400" math="0" shadow="0">
      <root>
        <mxCell id="0" />
        <mxCell id="1" parent="0" />

        <!-- Title -->
        <mxCell id="title" value="DOT 플랫폼 Paper 시스템 - 문서 소유권 및 작성 권한" style="text;html=1;strokeColor=none;fillColor=none;align=center;verticalAlign=middle;whiteSpace=wrap;rounded=0;fontSize=24;fontStyle=1" vertex="1" parent="1">
          <mxGeometry x="300" y="30" width="1000" height="50" as="geometry" />
        </mxCell>

        <!-- ER Diagram Section -->
        <mxCell id="er-title" value="━━━ 데이터베이스 구조 (ER Diagram) ━━━" style="text;html=1;strokeColor=none;fillColor=#e1d5e7;align=center;verticalAlign=middle;whiteSpace=wrap;rounded=1;fontSize=16;fontStyle=1" vertex="1" parent="1">
          <mxGeometry x="100" y="120" width="1400" height="40" as="geometry" />
        </mxCell>

        <!-- User Entity -->
        <mxCell id="user-entity" value="User" style="shape=table;startSize=30;container=1;collapsible=0;childLayout=tableLayout;fontStyle=1;align=center;fontSize=14;fillColor=#dae8fc;strokeColor=#6c8ebf;" vertex="1" parent="1">
          <mxGeometry x="100" y="200" width="200" height="120" as="geometry" />
        </mxCell>
        <mxCell id="user-row1" value="" style="shape=tableRow;horizontal=0;startSize=0;swimlaneHead=0;swimlaneBody=0;top=0;left=0;bottom=0;right=0;collapsible=0;dropTarget=0;fillColor=none;points=[[0,0.5],[1,0.5]];portConstraint=eastwest;" vertex="1" parent="user-entity">
          <mxGeometry y="30" width="200" height="30" as="geometry" />
        </mxCell>
        <mxCell id="user-row1-1" value="PK" style="shape=partialRectangle;html=1;whiteSpace=wrap;connectable=0;fillColor=none;top=0;left=0;bottom=0;right=0;overflow=hidden;fontStyle=1" vertex="1" parent="user-row1">
          <mxGeometry width="40" height="30" as="geometry" />
        </mxCell>
        <mxCell id="user-row1-2" value="id: string" style="shape=partialRectangle;html=1;whiteSpace=wrap;connectable=0;fillColor=none;top=0;left=0;bottom=0;right=0;align=left;spacingLeft=6;overflow=hidden;" vertex="1" parent="user-row1">
          <mxGeometry x="40" width="160" height="30" as="geometry" />
        </mxCell>
        <mxCell id="user-row2" value="" style="shape=tableRow;horizontal=0;startSize=0;swimlaneHead=0;swimlaneBody=0;top=0;left=0;bottom=0;right=0;collapsible=0;dropTarget=0;fillColor=none;points=[[0,0.5],[1,0.5]];portConstraint=eastwest;" vertex="1" parent="user-entity">
          <mxGeometry y="60" width="200" height="30" as="geometry" />
        </mxCell>
        <mxCell id="user-row2-1" value="" style="shape=partialRectangle;html=1;whiteSpace=wrap;connectable=0;fillColor=none;top=0;left=0;bottom=0;right=0;overflow=hidden;" vertex="1" parent="user-row2">
          <mxGeometry width="40" height="30" as="geometry" />
        </mxCell>
        <mxCell id="user-row2-2" value="name: string" style="shape=partialRectangle;html=1;whiteSpace=wrap;connectable=0;fillColor=none;top=0;left=0;bottom=0;right=0;align=left;spacingLeft=6;overflow=hidden;" vertex="1" parent="user-row2">
          <mxGeometry x="40" width="160" height="30" as="geometry" />
        </mxCell>
        <mxCell id="user-row3" value="" style="shape=tableRow;horizontal=0;startSize=0;swimlaneHead=0;swimlaneBody=0;top=0;left=0;bottom=0;right=0;collapsible=0;dropTarget=0;fillColor=none;points=[[0,0.5],[1,0.5]];portConstraint=eastwest;" vertex="1" parent="user-entity">
          <mxGeometry y="90" width="200" height="30" as="geometry" />
        </mxCell>
        <mxCell id="user-row3-1" value="" style="shape=partialRectangle;html=1;whiteSpace=wrap;connectable=0;fillColor=none;top=0;left=0;bottom=0;right=0;overflow=hidden;" vertex="1" parent="user-row3">
          <mxGeometry width="40" height="30" as="geometry" />
        </mxCell>
        <mxCell id="user-row3-2" value="email: string" style="shape=partialRectangle;html=1;whiteSpace=wrap;connectable=0;fillColor=none;top=0;left=0;bottom=0;right=0;align=left;spacingLeft=6;overflow=hidden;" vertex="1" parent="user-row3">
          <mxGeometry x="40" width="160" height="30" as="geometry" />
        </mxCell>

        <!-- PaperOwnership Entity -->
        <mxCell id="ownership-entity" value="PaperOwnership" style="shape=table;startSize=30;container=1;collapsible=0;childLayout=tableLayout;fontStyle=1;align=center;fontSize=14;fillColor=#fff2cc;strokeColor=#d6b656;" vertex="1" parent="1">
          <mxGeometry x="450" y="200" width="250" height="210" as="geometry" />
        </mxCell>
        <mxCell id="ownership-row1" value="" style="shape=tableRow;horizontal=0;startSize=0;swimlaneHead=0;swimlaneBody=0;top=0;left=0;bottom=0;right=0;collapsible=0;dropTarget=0;fillColor=none;points=[[0,0.5],[1,0.5]];portConstraint=eastwest;" vertex="1" parent="ownership-entity">
          <mxGeometry y="30" width="250" height="30" as="geometry" />
        </mxCell>
        <mxCell id="ownership-row1-1" value="PK" style="shape=partialRectangle;html=1;whiteSpace=wrap;connectable=0;fillColor=none;top=0;left=0;bottom=0;right=0;overflow=hidden;fontStyle=1" vertex="1" parent="ownership-row1">
          <mxGeometry width="40" height="30" as="geometry" />
        </mxCell>
        <mxCell id="ownership-row1-2" value="id: string" style="shape=partialRectangle;html=1;whiteSpace=wrap;connectable=0;fillColor=none;top=0;left=0;bottom=0;right=0;align=left;spacingLeft=6;overflow=hidden;" vertex="1" parent="ownership-row1">
          <mxGeometry x="40" width="210" height="30" as="geometry" />
        </mxCell>
        <mxCell id="ownership-row2" value="" style="shape=tableRow;horizontal=0;startSize=0;swimlaneHead=0;swimlaneBody=0;top=0;left=0;bottom=0;right=0;collapsible=0;dropTarget=0;fillColor=none;points=[[0,0.5],[1,0.5]];portConstraint=eastwest;" vertex="1" parent="ownership-entity">
          <mxGeometry y="60" width="250" height="30" as="geometry" />
        </mxCell>
        <mxCell id="ownership-row2-1" value="FK" style="shape=partialRectangle;html=1;whiteSpace=wrap;connectable=0;fillColor=none;top=0;left=0;bottom=0;right=0;overflow=hidden;fontStyle=1" vertex="1" parent="ownership-row2">
          <mxGeometry width="40" height="30" as="geometry" />
        </mxCell>
        <mxCell id="ownership-row2-2" value="userId: string" style="shape=partialRectangle;html=1;whiteSpace=wrap;connectable=0;fillColor=none;top=0;left=0;bottom=0;right=0;align=left;spacingLeft=6;overflow=hidden;" vertex="1" parent="ownership-row2">
          <mxGeometry x="40" width="210" height="30" as="geometry" />
        </mxCell>
        <mxCell id="ownership-row3" value="" style="shape=tableRow;horizontal=0;startSize=0;swimlaneHead=0;swimlaneBody=0;top=0;left=0;bottom=0;right=0;collapsible=0;dropTarget=0;fillColor=none;points=[[0,0.5],[1,0.5]];portConstraint=eastwest;" vertex="1" parent="ownership-entity">
          <mxGeometry y="90" width="250" height="30" as="geometry" />
        </mxCell>
        <mxCell id="ownership-row3-1" value="FK" style="shape=partialRectangle;html=1;whiteSpace=wrap;connectable=0;fillColor=none;top=0;left=0;bottom=0;right=0;overflow=hidden;fontStyle=1" vertex="1" parent="ownership-row3">
          <mxGeometry width="40" height="30" as="geometry" />
        </mxCell>
        <mxCell id="ownership-row3-2" value="paperId: string" style="shape=partialRectangle;html=1;whiteSpace=wrap;connectable=0;fillColor=none;top=0;left=0;bottom=0;right=0;align=left;spacingLeft=6;overflow=hidden;" vertex="1" parent="ownership-row3">
          <mxGeometry x="40" width="210" height="30" as="geometry" />
        </mxCell>
        <mxCell id="ownership-row4" value="" style="shape=tableRow;horizontal=0;startSize=0;swimlaneHead=0;swimlaneBody=0;top=0;left=0;bottom=0;right=0;collapsible=0;dropTarget=0;fillColor=none;points=[[0,0.5],[1,0.5]];portConstraint=eastwest;" vertex="1" parent="ownership-entity">
          <mxGeometry y="120" width="250" height="30" as="geometry" />
        </mxCell>
        <mxCell id="ownership-row4-1" value="" style="shape=partialRectangle;html=1;whiteSpace=wrap;connectable=0;fillColor=none;top=0;left=0;bottom=0;right=0;overflow=hidden;" vertex="1" parent="ownership-row4">
          <mxGeometry width="40" height="30" as="geometry" />
        </mxCell>
        <mxCell id="ownership-row4-2" value="role: OwnershipRole" style="shape=partialRectangle;html=1;whiteSpace=wrap;connectable=0;fillColor=none;top=0;left=0;bottom=0;right=0;align=left;spacingLeft=6;overflow=hidden;" vertex="1" parent="ownership-row4">
          <mxGeometry x="40" width="210" height="30" as="geometry" />
        </mxCell>
        <mxCell id="ownership-row5" value="" style="shape=tableRow;horizontal=0;startSize=0;swimlaneHead=0;swimlaneBody=0;top=0;left=0;bottom=0;right=0;collapsible=0;dropTarget=0;fillColor=none;points=[[0,0.5],[1,0.5]];portConstraint=eastwest;" vertex="1" parent="ownership-entity">
          <mxGeometry y="150" width="250" height="30" as="geometry" />
        </mxCell>
        <mxCell id="ownership-row5-1" value="" style="shape=partialRectangle;html=1;whiteSpace=wrap;connectable=0;fillColor=none;top=0;left=0;bottom=0;right=0;overflow=hidden;" vertex="1" parent="ownership-row5">
          <mxGeometry width="40" height="30" as="geometry" />
        </mxCell>
        <mxCell id="ownership-row5-2" value="isSigned: boolean" style="shape=partialRectangle;html=1;whiteSpace=wrap;connectable=0;fillColor=none;top=0;left=0;bottom=0;right=0;align=left;spacingLeft=6;overflow=hidden;" vertex="1" parent="ownership-row5">
          <mxGeometry x="40" width="210" height="30" as="geometry" />
        </mxCell>
        <mxCell id="ownership-row6" value="" style="shape=tableRow;horizontal=0;startSize=0;swimlaneHead=0;swimlaneBody=0;top=0;left=0;bottom=0;right=0;collapsible=0;dropTarget=0;fillColor=none;points=[[0,0.5],[1,0.5]];portConstraint=eastwest;" vertex="1" parent="ownership-entity">
          <mxGeometry y="180" width="250" height="30" as="geometry" />
        </mxCell>
        <mxCell id="ownership-row6-1" value="" style="shape=partialRectangle;html=1;whiteSpace=wrap;connectable=0;fillColor=none;top=0;left=0;bottom=0;right=0;overflow=hidden;" vertex="1" parent="ownership-row6">
          <mxGeometry width="40" height="30" as="geometry" />
        </mxCell>
        <mxCell id="ownership-row6-2" value="signedAt?: Date" style="shape=partialRectangle;html=1;whiteSpace=wrap;connectable=0;fillColor=none;top=0;left=0;bottom=0;right=0;align=left;spacingLeft=6;overflow=hidden;" vertex="1" parent="ownership-row6">
          <mxGeometry x="40" width="210" height="30" as="geometry" />
        </mxCell>

        <!-- Paper Entity -->
        <mxCell id="paper-entity" value="Paper" style="shape=table;startSize=30;container=1;collapsible=0;childLayout=tableLayout;fontStyle=1;align=center;fontSize=14;fillColor=#d5e8d4;strokeColor=#82b366;" vertex="1" parent="1">
          <mxGeometry x="850" y="200" width="300" height="240" as="geometry" />
        </mxCell>
        <mxCell id="paper-row1" value="" style="shape=tableRow;horizontal=0;startSize=0;swimlaneHead=0;swimlaneBody=0;top=0;left=0;bottom=0;right=0;collapsible=0;dropTarget=0;fillColor=none;points=[[0,0.5],[1,0.5]];portConstraint=eastwest;" vertex="1" parent="paper-entity">
          <mxGeometry y="30" width="300" height="30" as="geometry" />
        </mxCell>
        <mxCell id="paper-row1-1" value="PK" style="shape=partialRectangle;html=1;whiteSpace=wrap;connectable=0;fillColor=none;top=0;left=0;bottom=0;right=0;overflow=hidden;fontStyle=1" vertex="1" parent="paper-row1">
          <mxGeometry width="40" height="30" as="geometry" />
        </mxCell>
        <mxCell id="paper-row1-2" value="id: string" style="shape=partialRectangle;html=1;whiteSpace=wrap;connectable=0;fillColor=none;top=0;left=0;bottom=0;right=0;align=left;spacingLeft=6;overflow=hidden;" vertex="1" parent="paper-row1">
          <mxGeometry x="40" width="260" height="30" as="geometry" />
        </mxCell>
        <mxCell id="paper-row2" value="" style="shape=tableRow;horizontal=0;startSize=0;swimlaneHead=0;swimlaneBody=0;top=0;left=0;bottom=0;right=0;collapsible=0;dropTarget=0;fillColor=none;points=[[0,0.5],[1,0.5]];portConstraint=eastwest;" vertex="1" parent="paper-entity">
          <mxGeometry y="60" width="300" height="30" as="geometry" />
        </mxCell>
        <mxCell id="paper-row2-1" value="" style="shape=partialRectangle;html=1;whiteSpace=wrap;connectable=0;fillColor=none;top=0;left=0;bottom=0;right=0;overflow=hidden;" vertex="1" parent="paper-row2">
          <mxGeometry width="40" height="30" as="geometry" />
        </mxCell>
        <mxCell id="paper-row2-2" value="type: PaperType" style="shape=partialRectangle;html=1;whiteSpace=wrap;connectable=0;fillColor=none;top=0;left=0;bottom=0;right=0;align=left;spacingLeft=6;overflow=hidden;" vertex="1" parent="paper-row2">
          <mxGeometry x="40" width="260" height="30" as="geometry" />
        </mxCell>
        <mxCell id="paper-row3" value="" style="shape=tableRow;horizontal=0;startSize=0;swimlaneHead=0;swimlaneBody=0;top=0;left=0;bottom=0;right=0;collapsible=0;dropTarget=0;fillColor=none;points=[[0,0.5],[1,0.5]];portConstraint=eastwest;" vertex="1" parent="paper-entity">
          <mxGeometry y="90" width="300" height="30" as="geometry" />
        </mxCell>
        <mxCell id="paper-row3-1" value="" style="shape=partialRectangle;html=1;whiteSpace=wrap;connectable=0;fillColor=none;top=0;left=0;bottom=0;right=0;overflow=hidden;" vertex="1" parent="paper-row3">
          <mxGeometry width="40" height="30" as="geometry" />
        </mxCell>
        <mxCell id="paper-row3-2" value="status: PaperStatus" style="shape=partialRectangle;html=1;whiteSpace=wrap;connectable=0;fillColor=none;top=0;left=0;bottom=0;right=0;align=left;spacingLeft=6;overflow=hidden;" vertex="1" parent="paper-row3">
          <mxGeometry x="40" width="260" height="30" as="geometry" />
        </mxCell>
        <mxCell id="paper-row4" value="" style="shape=tableRow;horizontal=0;startSize=0;swimlaneHead=0;swimlaneBody=0;top=0;left=0;bottom=0;right=0;collapsible=0;dropTarget=0;fillColor=none;points=[[0,0.5],[1,0.5]];portConstraint=eastwest;" vertex="1" parent="paper-entity">
          <mxGeometry y="120" width="300" height="30" as="geometry" />
        </mxCell>
        <mxCell id="paper-row4-1" value="FK" style="shape=partialRectangle;html=1;whiteSpace=wrap;connectable=0;fillColor=none;top=0;left=0;bottom=0;right=0;overflow=hidden;fontStyle=1" vertex="1" parent="paper-row4">
          <mxGeometry width="40" height="30" as="geometry" />
        </mxCell>
        <mxCell id="paper-row4-2" value="creatorId: string" style="shape=partialRectangle;html=1;whiteSpace=wrap;connectable=0;fillColor=none;top=0;left=0;bottom=0;right=0;align=left;spacingLeft=6;overflow=hidden;" vertex="1" parent="paper-row4">
          <mxGeometry x="40" width="260" height="30" as="geometry" />
        </mxCell>
        <mxCell id="paper-row5" value="" style="shape=tableRow;horizontal=0;startSize=0;swimlaneHead=0;swimlaneBody=0;top=0;left=0;bottom=0;right=0;collapsible=0;dropTarget=0;fillColor=none;points=[[0,0.5],[1,0.5]];portConstraint=eastwest;" vertex="1" parent="paper-entity">
          <mxGeometry y="150" width="300" height="30" as="geometry" />
        </mxCell>
        <mxCell id="paper-row5-1" value="FK" style="shape=partialRectangle;html=1;whiteSpace=wrap;connectable=0;fillColor=none;top=0;left=0;bottom=0;right=0;overflow=hidden;fontStyle=1" vertex="1" parent="paper-row5">
          <mxGeometry width="40" height="30" as="geometry" />
        </mxCell>
        <mxCell id="paper-row5-2" value="businessRegistrationId?: string" style="shape=partialRectangle;html=1;whiteSpace=wrap;connectable=0;fillColor=none;top=0;left=0;bottom=0;right=0;align=left;spacingLeft=6;overflow=hidden;" vertex="1" parent="paper-row5">
          <mxGeometry x="40" width="260" height="30" as="geometry" />
        </mxCell>
        <mxCell id="paper-row6" value="" style="shape=tableRow;horizontal=0;startSize=0;swimlaneHead=0;swimlaneBody=0;top=0;left=0;bottom=0;right=0;collapsible=0;dropTarget=0;fillColor=none;points=[[0,0.5],[1,0.5]];portConstraint=eastwest;" vertex="1" parent="paper-entity">
          <mxGeometry y="180" width="300" height="30" as="geometry" />
        </mxCell>
        <mxCell id="paper-row6-1" value="" style="shape=partialRectangle;html=1;whiteSpace=wrap;connectable=0;fillColor=none;top=0;left=0;bottom=0;right=0;overflow=hidden;" vertex="1" parent="paper-row6">
          <mxGeometry width="40" height="30" as="geometry" />
        </mxCell>
        <mxCell id="paper-row6-2" value="content: JSON" style="shape=partialRectangle;html=1;whiteSpace=wrap;connectable=0;fillColor=none;top=0;left=0;bottom=0;right=0;align=left;spacingLeft=6;overflow=hidden;" vertex="1" parent="paper-row6">
          <mxGeometry x="40" width="260" height="30" as="geometry" />
        </mxCell>
        <mxCell id="paper-row7" value="" style="shape=tableRow;horizontal=0;startSize=0;swimlaneHead=0;swimlaneBody=0;top=0;left=0;bottom=0;right=0;collapsible=0;dropTarget=0;fillColor=none;points=[[0,0.5],[1,0.5]];portConstraint=eastwest;" vertex="1" parent="paper-entity">
          <mxGeometry y="210" width="300" height="30" as="geometry" />
        </mxCell>
        <mxCell id="paper-row7-1" value="" style="shape=partialRectangle;html=1;whiteSpace=wrap;connectable=0;fillColor=none;top=0;left=0;bottom=0;right=0;overflow=hidden;" vertex="1" parent="paper-row7">
          <mxGeometry width="40" height="30" as="geometry" />
        </mxCell>
        <mxCell id="paper-row7-2" value="isVerified: boolean" style="shape=partialRectangle;html=1;whiteSpace=wrap;connectable=0;fillColor=none;top=0;left=0;bottom=0;right=0;align=left;spacingLeft=6;overflow=hidden;" vertex="1" parent="paper-row7">
          <mxGeometry x="40" width="260" height="30" as="geometry" />
        </mxCell>

        <!-- UserRole Entity -->
        <mxCell id="role-entity" value="UserRole" style="shape=table;startSize=30;container=1;collapsible=0;childLayout=tableLayout;fontStyle=1;align=center;fontSize=14;fillColor=#f8cecc;strokeColor=#b85450;" vertex="1" parent="1">
          <mxGeometry x="1250" y="200" width="250" height="180" as="geometry" />
        </mxCell>
        <mxCell id="role-row1" value="" style="shape=tableRow;horizontal=0;startSize=0;swimlaneHead=0;swimlaneBody=0;top=0;left=0;bottom=0;right=0;collapsible=0;dropTarget=0;fillColor=none;points=[[0,0.5],[1,0.5]];portConstraint=eastwest;" vertex="1" parent="role-entity">
          <mxGeometry y="30" width="250" height="30" as="geometry" />
        </mxCell>
        <mxCell id="role-row1-1" value="PK" style="shape=partialRectangle;html=1;whiteSpace=wrap;connectable=0;fillColor=none;top=0;left=0;bottom=0;right=0;overflow=hidden;fontStyle=1" vertex="1" parent="role-row1">
          <mxGeometry width="40" height="30" as="geometry" />
        </mxCell>
        <mxCell id="role-row1-2" value="id: string" style="shape=partialRectangle;html=1;whiteSpace=wrap;connectable=0;fillColor=none;top=0;left=0;bottom=0;right=0;align=left;spacingLeft=6;overflow=hidden;" vertex="1" parent="role-row1">
          <mxGeometry x="40" width="210" height="30" as="geometry" />
        </mxCell>
        <mxCell id="role-row2" value="" style="shape=tableRow;horizontal=0;startSize=0;swimlaneHead=0;swimlaneBody=0;top=0;left=0;bottom=0;right=0;collapsible=0;dropTarget=0;fillColor=none;points=[[0,0.5],[1,0.5]];portConstraint=eastwest;" vertex="1" parent="role-entity">
          <mxGeometry y="60" width="250" height="30" as="geometry" />
        </mxCell>
        <mxCell id="role-row2-1" value="FK" style="shape=partialRectangle;html=1;whiteSpace=wrap;connectable=0;fillColor=none;top=0;left=0;bottom=0;right=0;overflow=hidden;fontStyle=1" vertex="1" parent="role-row2">
          <mxGeometry width="40" height="30" as="geometry" />
        </mxCell>
        <mxCell id="role-row2-2" value="userId: string" style="shape=partialRectangle;html=1;whiteSpace=wrap;connectable=0;fillColor=none;top=0;left=0;bottom=0;right=0;align=left;spacingLeft=6;overflow=hidden;" vertex="1" parent="role-row2">
          <mxGeometry x="40" width="210" height="30" as="geometry" />
        </mxCell>
        <mxCell id="role-row3" value="" style="shape=tableRow;horizontal=0;startSize=0;swimlaneHead=0;swimlaneBody=0;top=0;left=0;bottom=0;right=0;collapsible=0;dropTarget=0;fillColor=none;points=[[0,0.5],[1,0.5]];portConstraint=eastwest;" vertex="1" parent="role-entity">
          <mxGeometry y="90" width="250" height="30" as="geometry" />
        </mxCell>
        <mxCell id="role-row3-1" value="" style="shape=partialRectangle;html=1;whiteSpace=wrap;connectable=0;fillColor=none;top=0;left=0;bottom=0;right=0;overflow=hidden;" vertex="1" parent="role-row3">
          <mxGeometry width="40" height="30" as="geometry" />
        </mxCell>
        <mxCell id="role-row3-2" value="role: RoleType" style="shape=partialRectangle;html=1;whiteSpace=wrap;connectable=0;fillColor=none;top=0;left=0;bottom=0;right=0;align=left;spacingLeft=6;overflow=hidden;" vertex="1" parent="role-row3">
          <mxGeometry x="40" width="210" height="30" as="geometry" />
        </mxCell>
        <mxCell id="role-row4" value="" style="shape=tableRow;horizontal=0;startSize=0;swimlaneHead=0;swimlaneBody=0;top=0;left=0;bottom=0;right=0;collapsible=0;dropTarget=0;fillColor=none;points=[[0,0.5],[1,0.5]];portConstraint=eastwest;" vertex="1" parent="role-entity">
          <mxGeometry y="120" width="250" height="30" as="geometry" />
        </mxCell>
        <mxCell id="role-row4-1" value="FK" style="shape=partialRectangle;html=1;whiteSpace=wrap;connectable=0;fillColor=none;top=0;left=0;bottom=0;right=0;overflow=hidden;fontStyle=1" vertex="1" parent="role-row4">
          <mxGeometry width="40" height="30" as="geometry" />
        </mxCell>
        <mxCell id="role-row4-2" value="paperId: string" style="shape=partialRectangle;html=1;whiteSpace=wrap;connectable=0;fillColor=none;top=0;left=0;bottom=0;right=0;align=left;spacingLeft=6;overflow=hidden;" vertex="1" parent="role-row4">
          <mxGeometry x="40" width="210" height="30" as="geometry" />
        </mxCell>
        <mxCell id="role-row5" value="" style="shape=tableRow;horizontal=0;startSize=0;swimlaneHead=0;swimlaneBody=0;top=0;left=0;bottom=0;right=0;collapsible=0;dropTarget=0;fillColor=none;points=[[0,0.5],[1,0.5]];portConstraint=eastwest;" vertex="1" parent="role-entity">
          <mxGeometry y="150" width="250" height="30" as="geometry" />
        </mxCell>
        <mxCell id="role-row5-1" value="" style="shape=partialRectangle;html=1;whiteSpace=wrap;connectable=0;fillColor=none;top=0;left=0;bottom=0;right=0;overflow=hidden;" vertex="1" parent="role-row5">
          <mxGeometry width="40" height="30" as="geometry" />
        </mxCell>
        <mxCell id="role-row5-2" value="workplaceId: string" style="shape=partialRectangle;html=1;whiteSpace=wrap;connectable=0;fillColor=none;top=0;left=0;bottom=0;right=0;align=left;spacingLeft=6;overflow=hidden;" vertex="1" parent="role-row5">
          <mxGeometry x="40" width="210" height="30" as="geometry" />
        </mxCell>

        <!-- Relationships -->
        <mxCell id="rel1" value="" style="edgeStyle=orthogonalEdgeStyle;fontSize=12;html=1;endArrow=ERmany;startArrow=ERone;rounded=0;exitX=1;exitY=0.25;exitDx=0;exitDy=0;entryX=0;entryY=0.25;entryDx=0;entryDy=0;" edge="1" parent="1" source="user-entity" target="ownership-entity">
          <mxGeometry width="100" height="100" relative="1" as="geometry">
            <mxPoint x="300" y="250" as="sourcePoint" />
            <mxPoint x="450" y="250" as="targetPoint" />
          </mxGeometry>
        </mxCell>
        <mxCell id="rel1-label" value="1:N" style="text;html=1;align=center;verticalAlign=middle;whiteSpace=wrap;rounded=0;fontSize=10;fontStyle=1" vertex="1" parent="1">
          <mxGeometry x="360" y="220" width="30" height="20" as="geometry" />
        </mxCell>

        <mxCell id="rel2" value="" style="edgeStyle=orthogonalEdgeStyle;fontSize=12;html=1;endArrow=ERmany;startArrow=ERone;rounded=0;exitX=1;exitY=0.25;exitDx=0;exitDy=0;entryX=0;entryY=0.25;entryDx=0;entryDy=0;" edge="1" parent="1" source="ownership-entity" target="paper-entity">
          <mxGeometry width="100" height="100" relative="1" as="geometry">
            <mxPoint x="700" y="250" as="sourcePoint" />
            <mxPoint x="850" y="250" as="targetPoint" />
          </mxGeometry>
        </mxCell>
        <mxCell id="rel2-label" value="N:1" style="text;html=1;align=center;verticalAlign=middle;whiteSpace=wrap;rounded=0;fontSize=10;fontStyle=1" vertex="1" parent="1">
          <mxGeometry x="760" y="220" width="30" height="20" as="geometry" />
        </mxCell>

        <mxCell id="rel3" value="" style="edgeStyle=orthogonalEdgeStyle;fontSize=12;html=1;endArrow=ERone;startArrow=ERmany;rounded=0;exitX=1;exitY=0.25;exitDx=0;exitDy=0;entryX=0;entryY=0.25;entryDx=0;entryDy=0;" edge="1" parent="1" source="paper-entity" target="role-entity">
          <mxGeometry width="100" height="100" relative="1" as="geometry">
            <mxPoint x="1150" y="250" as="sourcePoint" />
            <mxPoint x="1250" y="250" as="targetPoint" />
          </mxGeometry>
        </mxCell>
        <mxCell id="rel3-label" value="1:N" style="text;html=1;align=center;verticalAlign=middle;whiteSpace=wrap;rounded=0;fontSize=10;fontStyle=1" vertex="1" parent="1">
          <mxGeometry x="1180" y="220" width="30" height="20" as="geometry" />
        </mxCell>

        <!-- Document Flow Section -->
        <mxCell id="flow-title" value="━━━ 문서 작성 및 소유 흐름 ━━━" style="text;html=1;strokeColor=none;fillColor=#e1d5e7;align=center;verticalAlign=middle;whiteSpace=wrap;rounded=1;fontSize=16;fontStyle=1" vertex="1" parent="1">
          <mxGeometry x="100" y="500" width="1400" height="40" as="geometry" />
        </mxCell>

        <!-- Business Registration Flow -->
        <mxCell id="br-box" value="📄 사업자등록증" style="rounded=1;whiteSpace=wrap;html=1;fillColor=#fff2cc;strokeColor=#d6b656;fontSize=14;fontStyle=1;align=center;verticalAlign=top;" vertex="1" parent="1">
          <mxGeometry x="100" y="580" width="400" height="180" as="geometry" />
        </mxCell>
        <mxCell id="br-creator" value="✍️ 작성자: User 본인" style="text;html=1;strokeColor=none;fillColor=none;align=left;verticalAlign=middle;whiteSpace=wrap;rounded=0;fontSize=12;" vertex="1" parent="1">
          <mxGeometry x="120" y="620" width="360" height="20" as="geometry" />
        </mxCell>
        <mxCell id="br-owner" value="👤 소유자: User 1명 (1:1)" style="text;html=1;strokeColor=none;fillColor=none;align=left;verticalAlign=middle;whiteSpace=wrap;rounded=0;fontSize=12;" vertex="1" parent="1">
          <mxGeometry x="120" y="650" width="360" height="20" as="geometry" />
        </mxCell>
        <mxCell id="br-verify" value="✅ 검증: 국세청 API" style="text;html=1;strokeColor=none;fillColor=none;align=left;verticalAlign=middle;whiteSpace=wrap;rounded=0;fontSize=12;" vertex="1" parent="1">
          <mxGeometry x="120" y="680" width="360" height="20" as="geometry" />
        </mxCell>
        <mxCell id="br-role" value="🎭 역할: Owner" style="text;html=1;strokeColor=none;fillColor=#d5e8d4;align=left;verticalAlign=middle;whiteSpace=wrap;rounded=1;fontSize=12;fontStyle=1;strokeColor=#82b366;" vertex="1" parent="1">
          <mxGeometry x="120" y="710" width="360" height="30" as="geometry" />
        </mxCell>

        <!-- Employment Contract Flow -->
        <mxCell id="ec-box" value="📄 근로계약서" style="rounded=1;whiteSpace=wrap;html=1;fillColor=#dae8fc;strokeColor=#6c8ebf;fontSize=14;fontStyle=1;align=center;verticalAlign=top;" vertex="1" parent="1">
          <mxGeometry x="550" y="580" width="400" height="180" as="geometry" />
        </mxCell>
        <mxCell id="ec-creator" value="✍️ 작성자: Owner 또는 Manager (권한 보유)" style="text;html=1;strokeColor=none;fillColor=none;align=left;verticalAlign=middle;whiteSpace=wrap;rounded=0;fontSize=12;" vertex="1" parent="1">
          <mxGeometry x="570" y="620" width="360" height="20" as="geometry" />
        </mxCell>
        <mxCell id="ec-owner" value="👥 소유자: Owner + Worker (2명, N:M)" style="text;html=1;strokeColor=none;fillColor=none;align=left;verticalAlign=middle;whiteSpace=wrap;rounded=0;fontSize=12;" vertex="1" parent="1">
          <mxGeometry x="570" y="650" width="360" height="20" as="geometry" />
        </mxCell>
        <mxCell id="ec-scope" value="📍 범위: 사업자등록증별" style="text;html=1;strokeColor=none;fillColor=none;align=left;verticalAlign=middle;whiteSpace=wrap;rounded=0;fontSize=12;" vertex="1" parent="1">
          <mxGeometry x="570" y="680" width="360" height="20" as="geometry" />
        </mxCell>
        <mxCell id="ec-role" value="🎭 역할: Worker" style="text;html=1;strokeColor=none;fillColor=#dae8fc;align=left;verticalAlign=middle;whiteSpace=wrap;rounded=1;fontSize=12;fontStyle=1;strokeColor=#6c8ebf;" vertex="1" parent="1">
          <mxGeometry x="570" y="710" width="360" height="30" as="geometry" />
        </mxCell>

        <!-- Authority Delegation Flow -->
        <mxCell id="ad-box" value="📄 권한위임장" style="rounded=1;whiteSpace=wrap;html=1;fillColor=#f8cecc;strokeColor=#b85450;fontSize=14;fontStyle=1;align=center;verticalAlign=top;" vertex="1" parent="1">
          <mxGeometry x="1000" y="580" width="400" height="180" as="geometry" />
        </mxCell>
        <mxCell id="ad-creator" value="✍️ 작성자: Owner" style="text;html=1;strokeColor=none;fillColor=none;align=left;verticalAlign=middle;whiteSpace=wrap;rounded=0;fontSize=12;" vertex="1" parent="1">
          <mxGeometry x="1020" y="620" width="360" height="20" as="geometry" />
        </mxCell>
        <mxCell id="ad-owner" value="👥 소유자: Owner + Manager (2명, N:M)" style="text;html=1;strokeColor=none;fillColor=none;align=left;verticalAlign=middle;whiteSpace=wrap;rounded=0;fontSize=12;" vertex="1" parent="1">
          <mxGeometry x="1020" y="650" width="360" height="20" as="geometry" />
        </mxCell>
        <mxCell id="ad-scope" value="📍 범위: 사업자등록증별" style="text;html=1;strokeColor=none;fillColor=none;align=left;verticalAlign=middle;whiteSpace=wrap;rounded=0;fontSize=12;" vertex="1" parent="1">
          <mxGeometry x="1020" y="680" width="360" height="20" as="geometry" />
        </mxCell>
        <mxCell id="ad-role" value="🎭 역할: Manager (⚠️ Worker 필수)" style="text;html=1;strokeColor=none;fillColor=#f8cecc;align=left;verticalAlign=middle;whiteSpace=wrap;rounded=1;fontSize=12;fontStyle=1;strokeColor=#b85450;" vertex="1" parent="1">
          <mxGeometry x="1020" y="710" width="360" height="30" as="geometry" />
        </mxCell>

        <!-- Permission Flow Section -->
        <mxCell id="perm-title" value="━━━ 문서 작성 권한 체계 ━━━" style="text;html=1;strokeColor=none;fillColor=#e1d5e7;align=center;verticalAlign=middle;whiteSpace=wrap;rounded=1;fontSize=16;fontStyle=1" vertex="1" parent="1">
          <mxGeometry x="100" y="820" width="1400" height="40" as="geometry" />
        </mxCell>

        <!-- Permission Matrix -->
        <mxCell id="matrix-header" value="문서 작성 권한 매트릭스" style="rounded=1;whiteSpace=wrap;html=1;fillColor=#e1d5e7;strokeColor=#9673a6;fontSize=14;fontStyle=1;align=center;" vertex="1" parent="1">
          <mxGeometry x="100" y="900" width="1400" height="40" as="geometry" />
        </mxCell>

        <!-- Matrix Row 1 -->
        <mxCell id="matrix-col1" value="문서 종류" style="rounded=0;whiteSpace=wrap;html=1;fillColor=#f5f5f5;strokeColor=#666666;fontSize=12;fontStyle=1;align=center;" vertex="1" parent="1">
          <mxGeometry x="100" y="940" width="350" height="40" as="geometry" />
        </mxCell>
        <mxCell id="matrix-col2" value="작성 권한" style="rounded=0;whiteSpace=wrap;html=1;fillColor=#f5f5f5;strokeColor=#666666;fontSize=12;fontStyle=1;align=center;" vertex="1" parent="1">
          <mxGeometry x="450" y="940" width="350" height="40" as="geometry" />
        </mxCell>
        <mxCell id="matrix-col3" value="서명 필요" style="rounded=0;whiteSpace=wrap;html=1;fillColor=#f5f5f5;strokeColor=#666666;fontSize=12;fontStyle=1;align=center;" vertex="1" parent="1">
          <mxGeometry x="800" y="940" width="350" height="40" as="geometry" />
        </mxCell>
        <mxCell id="matrix-col4" value="부여 역할" style="rounded=0;whiteSpace=wrap;html=1;fillColor=#f5f5f5;strokeColor=#666666;fontSize=12;fontStyle=1;align=center;" vertex="1" parent="1">
          <mxGeometry x="1150" y="940" width="350" height="40" as="geometry" />
        </mxCell>

        <!-- Matrix Row 2: Business Registration -->
        <mxCell id="matrix-br1" value="📄 사업자등록증" style="rounded=0;whiteSpace=wrap;html=1;fillColor=#fff2cc;strokeColor=#d6b656;fontSize=12;align=center;" vertex="1" parent="1">
          <mxGeometry x="100" y="980" width="350" height="40" as="geometry" />
        </mxCell>
        <mxCell id="matrix-br2" value="User 본인" style="rounded=0;whiteSpace=wrap;html=1;fillColor=#fff2cc;strokeColor=#d6b656;fontSize=12;align=center;" vertex="1" parent="1">
          <mxGeometry x="450" y="980" width="350" height="40" as="geometry" />
        </mxCell>
        <mxCell id="matrix-br3" value="User 본인 (1명)" style="rounded=0;whiteSpace=wrap;html=1;fillColor=#fff2cc;strokeColor=#d6b656;fontSize=12;align=center;" vertex="1" parent="1">
          <mxGeometry x="800" y="980" width="350" height="40" as="geometry" />
        </mxCell>
        <mxCell id="matrix-br4" value="Owner" style="rounded=0;whiteSpace=wrap;html=1;fillColor=#d5e8d4;strokeColor=#82b366;fontSize=12;fontStyle=1;align=center;" vertex="1" parent="1">
          <mxGeometry x="1150" y="980" width="350" height="40" as="geometry" />
        </mxCell>

        <!-- Matrix Row 3: Employment Contract -->
        <mxCell id="matrix-ec1" value="📄 근로계약서" style="rounded=0;whiteSpace=wrap;html=1;fillColor=#dae8fc;strokeColor=#6c8ebf;fontSize=12;align=center;" vertex="1" parent="1">
          <mxGeometry x="100" y="1020" width="350" height="40" as="geometry" />
        </mxCell>
        <mxCell id="matrix-ec2" value="Owner 또는 Manager (권한 보유)" style="rounded=0;whiteSpace=wrap;html=1;fillColor=#dae8fc;strokeColor=#6c8ebf;fontSize=12;align=center;" vertex="1" parent="1">
          <mxGeometry x="450" y="1020" width="350" height="40" as="geometry" />
        </mxCell>
        <mxCell id="matrix-ec3" value="Owner + Worker (2명)" style="rounded=0;whiteSpace=wrap;html=1;fillColor=#dae8fc;strokeColor=#6c8ebf;fontSize=12;align=center;" vertex="1" parent="1">
          <mxGeometry x="800" y="1020" width="350" height="40" as="geometry" />
        </mxCell>
        <mxCell id="matrix-ec4" value="Worker" style="rounded=0;whiteSpace=wrap;html=1;fillColor=#dae8fc;strokeColor=#6c8ebf;fontSize=12;fontStyle=1;align=center;" vertex="1" parent="1">
          <mxGeometry x="1150" y="1020" width="350" height="40" as="geometry" />
        </mxCell>

        <!-- Matrix Row 4: Authority Delegation -->
        <mxCell id="matrix-ad1" value="📄 권한위임장" style="rounded=0;whiteSpace=wrap;html=1;fillColor=#f8cecc;strokeColor=#b85450;fontSize=12;align=center;" vertex="1" parent="1">
          <mxGeometry x="100" y="1060" width="350" height="40" as="geometry" />
        </mxCell>
        <mxCell id="matrix-ad2" value="Owner" style="rounded=0;whiteSpace=wrap;html=1;fillColor=#f8cecc;strokeColor=#b85450;fontSize=12;align=center;" vertex="1" parent="1">
          <mxGeometry x="450" y="1060" width="350" height="40" as="geometry" />
        </mxCell>
        <mxCell id="matrix-ad3" value="Owner + Manager (2명)" style="rounded=0;whiteSpace=wrap;html=1;fillColor=#f8cecc;strokeColor=#b85450;fontSize=12;align=center;" vertex="1" parent="1">
          <mxGeometry x="800" y="1060" width="350" height="40" as="geometry" />
        </mxCell>
        <mxCell id="matrix-ad4" value="Manager (⚠️ Worker 필수)" style="rounded=0;whiteSpace=wrap;html=1;fillColor=#f8cecc;strokeColor=#b85450;fontSize=12;fontStyle=1;align=center;" vertex="1" parent="1">
          <mxGeometry x="1150" y="1060" width="350" height="40" as="geometry" />
        </mxCell>

        <!-- Key Rules -->
        <mxCell id="rules-title" value="🔑 핵심 규칙" style="text;html=1;strokeColor=none;fillColor=#ffe6cc;align=center;verticalAlign=middle;whiteSpace=wrap;rounded=1;fontSize=16;fontStyle=1;strokeColor=#d79b00;" vertex="1" parent="1">
          <mxGeometry x="100" y="1150" width="1400" height="40" as="geometry" />
        </mxCell>

        <mxCell id="rule1" value="1️⃣ 사업자등록증은 User 1명만 소유 (1:1 관계)" style="rounded=1;whiteSpace=wrap;html=1;fillColor=#fff2cc;strokeColor=#d6b656;fontSize=13;align=left;spacingLeft=20;" vertex="1" parent="1">
          <mxGeometry x="100" y="1210" width="670" height="40" as="geometry" />
        </mxCell>

        <mxCell id="rule2" value="2️⃣ 근로계약서는 Owner와 Worker가 공동 소유 (N:M 관계)" style="rounded=1;whiteSpace=wrap;html=1;fillColor=#dae8fc;strokeColor=#6c8ebf;fontSize=13;align=left;spacingLeft=20;" vertex="1" parent="1">
          <mxGeometry x="830" y="1210" width="670" height="40" as="geometry" />
        </mxCell>

        <mxCell id="rule3" value="3️⃣ 권한위임장은 Owner와 Manager가 공동 소유 (N:M 관계)" style="rounded=1;whiteSpace=wrap;html=1;fillColor=#f8cecc;strokeColor=#b85450;fontSize=13;align=left;spacingLeft=20;" vertex="1" parent="1">
          <mxGeometry x="100" y="1270" width="670" height="40" as="geometry" />
        </mxCell>

        <mxCell id="rule4" value="4️⃣ Manager는 권한위임장에 근로계약서 작성 권한이 있을 때만 작성 가능" style="rounded=1;whiteSpace=wrap;html=1;fillColor=#ffe6cc;strokeColor=#d79b00;fontSize=13;align=left;spacingLeft=20;" vertex="1" parent="1">
          <mxGeometry x="830" y="1270" width="670" height="40" as="geometry" />
        </mxCell>

        <mxCell id="rule5" value="5️⃣ 모든 문서는 양측 서명 완료 후 역할 자동 부여 (사업자등록증 제외)" style="rounded=1;whiteSpace=wrap;html=1;fillColor=#e1d5e7;strokeColor=#9673a6;fontSize=13;align=left;spacingLeft=20;" vertex="1" parent="1">
          <mxGeometry x="100" y="1330" width="1400" height="40" as="geometry" />
        </mxCell>

      </root>
    </mxGraphModel>
  </diagram>
</mxfile>